<svg xmlns="http://www.w3.org/2000/svg" width="161" height="39" fill="none" viewBox="0 0 161 39"><mask id="mask0_315_91" width="161" height="39" x="0" y="0" maskUnits="userSpaceOnUse" style="mask-type:alpha"><path fill="#fff" d="M52.6274 1.43704V37.0307C52.6274 37.8231 51.9857 38.4677 51.1969 38.4677H41.9589C41.1701 38.4677 40.5284 37.8231 40.5284 37.0307V1.43704C40.5284 0.644654 41.1701 0 41.9589 0H51.1969C51.9857 0 52.6274 0.644654 52.6274 1.43704ZM38.1855 36.8393L27.4233 18.3592L37.624 1.68214C38.1119 0.970339 37.6072 0 36.7483 0L25.5416 0C25.1874 0 24.8531 0.177951 24.6559 0.473418L16.7214 14.0212H12.099V1.43704C12.099 0.644654 11.4573 0 10.6685 0H1.43049C0.641716 0 0 0.644654 0 1.43704V37.0307C0 37.8231 0.641716 38.4677 1.43049 38.4677H10.6685C11.4573 38.4677 12.099 37.8231 12.099 37.0307V24.5002H17.7307L25.6085 37.9439C25.8023 38.2663 26.1499 38.4677 26.5243 38.4677H37.2764C38.1086 38.4677 38.6199 37.5511 38.1855 36.8393ZM159.279 38.4677C160.068 38.4677 160.71 37.8231 160.71 37.0307V1.43704C160.71 0.644654 160.068 0 159.279 0H150.432C149.644 0 149.002 0.644654 149.002 1.43704V19.6452L132.822 0H122.571C121.782 0 121.141 0.644654 121.141 1.43704V37.034C121.141 37.8264 121.779 38.4677 122.568 38.4677H131.452C132.24 38.4677 132.879 37.8264 132.879 37.034V18.8192L148.878 38.4677H159.279ZM117.434 1.58813V36.8829C117.434 37.7593 116.725 38.4711 115.853 38.4711H57.9082C57.0359 38.4711 56.3273 37.7593 56.3273 36.8829V1.58813C56.3273 0.711805 57.0359 0 57.9082 0H115.856C116.729 0 117.434 0.711805 117.434 1.58813ZM105.409 10.2272C105.409 9.9082 105.118 9.66981 104.804 9.7336C98.5435 10.9893 76.3776 11.1807 68.9444 9.72353C68.6369 9.66309 68.3528 9.90148 68.3528 10.2205V27.6832C68.3528 27.9921 68.6235 28.2271 68.931 28.1835C75.0942 27.2668 98.5235 27.4179 104.847 28.2036C105.148 28.2405 105.409 28.0055 105.409 27.7033V10.2272Z"/></mask><g mask="url(#mask0_315_91)"><path fill="url(#paint0_linear_315_91)" d="M161.46 0H0V38.4711H161.46V0Z"/></g><defs><linearGradient id="paint0_linear_315_91" x1="70.729" x2="95.34" y1="56.636" y2="-35.406" gradientUnits="userSpaceOnUse"><stop offset=".036" stop-color="#3F71B6"/><stop offset=".101" stop-color="#3D59A5"/><stop offset=".194" stop-color="#3A3D91"/><stop offset=".247" stop-color="#393289"/><stop offset=".472" stop-color="#C12E7D"/><stop offset=".51" stop-color="#C62E68"/><stop offset=".565" stop-color="#CC2D50"/><stop offset=".627" stop-color="#D02D3E"/><stop offset=".702" stop-color="#D42C31"/><stop offset=".798" stop-color="#D52C29"/><stop offset=".997" stop-color="#D62C27"/></linearGradient></defs></svg>