<svg xmlns="http://www.w3.org/2000/svg" width="127" height="16" fill="none" viewBox="0 0 127 16"><g opacity=".4"><path fill="#141414" d="M106.324 13.2395H109.808V4.46805H113.165V1.35156H102.967V4.46805H106.324V13.2395Z"/><path fill="#141414" d="M126.143 4.46805V1.35156H120.912C116.284 1.35156 113.518 3.57583 113.518 7.29552C113.518 11.0152 116.284 13.2395 120.912 13.2395H126.143V10.123H120.912C118.434 10.123 117.127 9.1428 117.127 7.29552C117.127 5.44824 118.434 4.46805 120.912 4.46805H126.143Z"/><path fill="#141414" d="M93.586 8.47678L91.6746 1.35156H85.4121V13.2395H88.8954V3.04804L89.0212 3.513L91.6243 13.2395H95.6609L98.3897 3.04804V13.2395H101.873V1.35156H95.6106L93.6489 8.70297L93.586 8.47678Z"/><path fill="#141414" d="M76.9479 0.634766C75.967 0.634766 74.7975 1.58982 73.8292 3.18577C72.8107 4.85712 72.207 6.91803 72.207 8.71504C72.207 11.3289 73.6783 13.9553 76.9479 13.9553C80.2175 13.9553 81.6888 11.3163 81.6888 8.71504C81.6888 6.91803 81.0851 4.85712 80.0666 3.18577C79.0983 1.58982 77.9288 0.634766 76.9479 0.634766Z"/><path fill="#141414" d="M0 8.90313C0 11.5672 1.96173 13.5779 4.5648 13.5779C5.43249 13.5779 6.22474 13.3768 6.96668 12.9747V11.3787C6.36306 11.7683 5.67143 12.1076 4.72829 12.1076C3.21926 12.1076 1.62221 10.9766 1.62221 8.89057C1.62221 7.05585 2.95518 5.6861 4.72829 5.6861C5.54568 5.6861 6.19959 5.88717 6.96668 6.37726V4.80645C6.22474 4.40432 5.43249 4.21582 4.5648 4.21582C1.96173 4.22839 0 6.23902 0 8.90313Z"/><path fill="#141414" d="M10.0615 7.79777L10.0489 7.83547H9.93577L9.75972 6.81758H8.52734V13.4024H10.0867V10.0095C10.0867 8.66486 10.9795 8.18733 11.8095 8.18733C11.9855 8.18733 12.1364 8.1999 12.2873 8.22504V6.77989C12.1742 6.75475 12.0358 6.74219 11.8598 6.74219C11.5831 6.74219 10.6023 6.81758 10.0615 7.79777Z"/><path fill="#141414" d="M16.1973 6.65332C14.2984 6.65332 12.9277 8.11103 12.9277 10.1217C12.9277 12.2077 14.3236 13.5523 16.4865 13.5523C17.3039 13.5523 18.0836 13.3387 18.7501 12.924V11.6422C18.0836 12.082 17.3668 12.3208 16.6752 12.3208C15.5057 12.3208 14.638 11.6674 14.399 10.5992L14.3865 10.5238H19.1148C19.1399 10.3604 19.1525 10.1845 19.1525 9.97088C19.1651 7.96024 18.0081 6.65332 16.1973 6.65332ZM14.3865 9.59388L14.399 9.51848C14.5877 8.5383 15.3045 7.88483 16.1847 7.88483C17.0776 7.88483 17.6686 8.52572 17.6812 9.53104V9.59388H14.3865Z"/><path fill="#141414" d="M25.5271 8.02294L25.4391 7.87214C24.9738 7.09301 24.1564 6.64062 23.2258 6.64062C21.7797 6.64062 20.2832 7.93498 20.2832 10.0964C20.2832 11.7552 21.4024 13.5396 23.2258 13.5396C24.1564 13.5396 24.9612 13.0872 25.4391 12.2956L25.5271 12.1448L25.7157 13.3637H27.011V6.77886H25.7157L25.5271 8.02294ZM23.6911 12.1573C22.6348 12.1573 21.8551 11.2902 21.8551 10.109C21.8551 8.92773 22.6222 8.06064 23.6911 8.06064C24.7348 8.06064 25.4893 8.92773 25.4893 10.109C25.4893 11.2902 24.7223 12.1573 23.6911 12.1573Z"/><path fill="#141414" d="M30.7848 10.8635V8.09882H32.6208V6.81704H30.7848V5.25879H29.2884V6.81704H28.2949V8.09882H29.2758V10.9514C29.2758 12.5976 30.2064 13.5401 31.8412 13.5401C32.1807 13.5401 32.4699 13.515 32.7466 13.4522V12.1452C32.5454 12.1829 32.3693 12.1955 32.2058 12.1955C31.2878 12.1704 30.7848 11.7054 30.7848 10.8635Z"/><path fill="#141414" d="M36.9336 6.65332C35.0348 6.65332 33.6641 8.11103 33.6641 10.1217C33.6641 12.2077 35.0599 13.5523 37.2229 13.5523C38.0403 13.5523 38.8199 13.3387 39.4864 12.924V11.6422C38.8199 12.082 38.1031 12.3208 37.4115 12.3208C36.242 12.3208 35.3743 11.6674 35.1479 10.5992L35.1354 10.5238H39.8637C39.8888 10.3604 39.9014 10.1845 39.9014 9.97088C39.9014 7.96024 38.7319 6.65332 36.9336 6.65332ZM35.1228 9.59388L35.1354 9.51848C35.324 8.5383 36.0282 7.88483 36.9211 7.88483C37.8139 7.88483 38.4049 8.52572 38.4175 9.53104V9.59388H35.1228Z"/><path fill="#141414" d="M46.188 8.02333L46.0748 7.82227C45.6598 7.10598 44.855 6.65359 43.9747 6.65359C42.5411 6.65359 41.0195 7.85997 41.0195 10.0968C41.0195 11.7933 42.1262 13.5526 43.9873 13.5526C44.8927 13.5526 45.7101 13.0876 46.1754 12.3085L46.2634 12.1577L46.452 13.3767H47.7473V3.72559H46.188V8.02333ZM44.4148 12.1577C43.3585 12.1577 42.5789 11.2906 42.5789 10.1094C42.5789 8.92812 43.3459 8.06103 44.4148 8.06103C45.4586 8.06103 46.2131 8.92812 46.2131 10.1094C46.2131 11.2906 45.4586 12.1577 44.4148 12.1577Z"/><path fill="#141414" d="M56.6002 6.65385C55.7074 6.65385 54.8648 7.1188 54.4499 7.83509L54.3367 8.03616V3.75098H52.7773V13.4021H54.0726L54.2612 12.1831L54.3492 12.3339C54.8145 13.113 55.6319 13.578 56.5373 13.578C58.3859 13.578 59.5051 11.8187 59.5051 10.1222C59.5051 7.86023 58.0086 6.65385 56.6002 6.65385ZM56.1098 12.158C55.066 12.158 54.2989 11.2909 54.2989 10.1096C54.2989 8.92839 55.0535 8.06129 56.0972 8.06129C57.1535 8.06129 57.9332 8.92838 57.9332 10.1222C57.9332 11.2909 57.1661 12.158 56.1098 12.158Z"/><path fill="#141414" d="M65.0514 6.81738L63.4795 11.4419H63.3538L63.3412 11.4042L61.7945 6.81738H60.1094L62.6118 13.2514L62.5993 13.2766L61.4926 15.9532H63.052L66.6485 6.81738H65.0514Z"/></g></svg>